<?xml version="1.0" encoding="UTF-8" standalone="no"?>
<svg xmlns:dc="http://purl.org/dc/elements/1.1/" xmlns:cc="http://creativecommons.org/ns#" xmlns:rdf="http://www.w3.org/1999/02/22-rdf-syntax-ns#" xmlns:svg="http://www.w3.org/2000/svg" xmlns="http://www.w3.org/2000/svg" xmlns:xlink="http://www.w3.org/1999/xlink" xmlns:sodipodi="http://sodipodi.sourceforge.net/DTD/sodipodi-0.dtd" xmlns:inkscape="http://www.inkscape.org/namespaces/inkscape" version="1.0" width="620" height="620" viewBox="0 0 62 62" id="svg0" sodipodi:version="0.32" inkscape:version="0.47 r22583" sodipodi:docname="ambox_padlock_red.svg" inkscape:output_extension="org.inkscape.output.svg.inkscape">
  <metadata id="metadata2478">
    <rdf:RDF>
      <cc:Work rdf:about="">
        <dc:format>image/svg+xml</dc:format>
        <dc:type rdf:resource="http://purl.org/dc/dcmitype/StillImage"/>
        <dc:title/>
      </cc:Work>
    </rdf:RDF>
  </metadata>
  <sodipodi:namedview inkscape:window-height="744" inkscape:window-width="1280" inkscape:pageshadow="2" inkscape:pageopacity="0.0" guidetolerance="10.0" gridtolerance="10.0" objecttolerance="10.0" borderopacity="1.0" bordercolor="#666666" pagecolor="#ffffff" id="base" showgrid="false" inkscape:zoom="0.74516129" inkscape:cx="127.22231" inkscape:cy="312.93155" inkscape:window-x="-4" inkscape:window-y="26" inkscape:current-layer="svg0" inkscape:window-maximized="1"/>
  <defs id="defs4">
    <inkscape:perspective sodipodi:type="inkscape:persp3d" inkscape:vp_x="0 : 310 : 1" inkscape:vp_y="0 : 1000 : 0" inkscape:vp_z="620 : 310 : 1" inkscape:persp3d-origin="310 : 206.66667 : 1" id="perspective2480"/>
    <radialGradient id="shadowGradient">
      <stop id="stop17" style="stop-color:#c0c0c0;stop-opacity:1" offset="0"/>
      <stop id="stop19" style="stop-color:#c0c0c0;stop-opacity:1" offset="0.88"/>
      <stop id="stop21" style="stop-color:#c0c0c0;stop-opacity:0" offset="1"/>
    </radialGradient>
    <linearGradient x1="42.986301" y1="7.0127001" x2="22.0144" y2="51.987099" id="fieldGradient" gradientUnits="userSpaceOnUse">
      <stop id="stop7" style="stop-color:#ffafaf;stop-opacity:1;" offset="0"/>
      <stop id="stop9" style="stop-color:#e31313;stop-opacity:1;" offset="1"/>
    </linearGradient>
    <linearGradient x1="54.509937" y1="41.179295" x2="9.5471001" y2="16.248501" id="edgeGradient" gradientUnits="userSpaceOnUse" xlink:href="#fieldGradient">
      <stop id="stop12" style="stop-color:#9a1212;stop-opacity:1;" offset="0"/>
      <stop id="stop14" style="stop-color:#d33e3e;stop-opacity:1;" offset="1"/>
    </linearGradient>
    <inkscape:perspective id="perspective3614" inkscape:persp3d-origin="0.5 : 0.33333333 : 1" inkscape:vp_z="1 : 0.5 : 1" inkscape:vp_y="0 : 1000 : 0" inkscape:vp_x="0 : 0.5 : 1" sodipodi:type="inkscape:persp3d"/>
  </defs>
  <circle cx="32.5" cy="29.5" r="26.5" id="shadow" style="fill:url(#shadowGradient);stroke:none" transform="matrix(1.0648,0,0,1.064822,-2.1,1.0864)"/>
  <circle cx="31" cy="31" r="25.8" id="field" style="fill:url(#fieldGradient);fill-opacity:1;stroke:url(#edgeGradient);stroke-width:2"/>
  <path style="color:#000000;fill:#ffffff;fill-opacity:1;fill-rule:nonzero;stroke:none;stroke-width:0.9999997;marker:none;visibility:visible;display:block;overflow:visible" d="m 30.237249,16.126706 c -5.229179,0.163796 -8.695652,2.678258 -8.695652,7.864465 l 0,5.293386 -1.176894,0 c -0.863432,0 -1.569144,0.594806 -1.569144,1.33956 l 0,13.914052 c 0,0.744856 0.705674,1.339547 1.569144,1.339547 l 21.292383,0 c 0.863559,0 1.547355,-0.594678 1.547355,-1.339547 l 0,-13.914052 c 0,-0.744857 -0.683834,-1.33956 -1.547355,-1.33956 l -1.198605,0 0.02183,-5.206966 c 0,-5.505269 -3.763079,-7.882926 -9.458442,-7.950885 -0.265543,-0.0032 -0.527361,-0.0081 -0.784553,0 z m 0.522992,3.478523 c 0.09635,-0.0021 0.205677,0 0.305111,0 6.319126,0 5.834558,4.494305 5.927864,5.833529 l 0,3.845799 -11.899331,0 0,-3.824203 c -0.02183,-1.328575 -0.39144,-5.718474 5.666356,-5.855125 z" id="path2086" inkscape:r_cx="true" inkscape:r_cy="true"/>
</svg>